<svg xmlns="http://www.w3.org/2000/svg" viewBox="0 0 48 48"><defs><style>.cls-1{fill:#fff;}</style></defs><title>QA_favicon자산 1</title><g id="레이어_2" data-name="레이어 2"><g id="레이어_1-2" data-name="레이어 1"><rect width="48" height="48"/><path class="cls-1" d="M37.22,26.12l-.77-2-3.28-8.28H31.51l-.16.38c0,.07-1.68,4.25-3.17,7.9-.27.68-.54,1.35-.8,2-.56,1.38-1,2.51-1.3,3.07-.74,1.6-1.9,2.56-3.11,2.56h0a2.77,2.77,0,0,1-2.14-1.45,8.19,8.19,0,1,0-1.89,1,4.89,4.89,0,0,0,4,2.6h0c2.06,0,3.94-1.41,5-3.79.32-.7.95-2.2,1.67-4h5.26L37.24,32h2.28Zm-21,3.51a5.92,5.92,0,0,1-2.1-.38,2.52,2.52,0,0,1,.59-1.31A1.76,1.76,0,0,1,16,27.45c1,0,1.67,1,2.07,1.87A6,6,0,0,1,16.18,29.63ZM20,28.3c-.91-1.9-2.31-3-3.93-3a3.89,3.89,0,0,0-2.89,1.15,4.15,4.15,0,0,0-1,1.63A6,6,0,1,1,20,28.3Zm10.52-4.14c.67-1.64,1.34-3.31,1.87-4.63l1.83,4.63Z"/></g></g></svg>