<svg xmlns="http://www.w3.org/2000/svg" viewBox="0 0 108.36 63.44"><title>QA_logo자산 2</title><g id="레이어_2" data-name="레이어 2"><g id="레이어_1-2" data-name="레이어 1"><path fill="white" d="M100.43,36.77,97.77,30,86.52,1.54H80.78l-.52,1.32c-.09.23-5.8,14.6-10.91,27.17-.95,2.35-1.88,4.63-2.75,6.74C64.65,41.5,63,45.4,62.13,47.32c-2.55,5.53-6.56,8.82-10.73,8.82h0c-2.88,0-5.63-2.25-7.36-5a27.91,27.91,0,1,0-6.5,3.35c2.87,4.86,7.9,8.92,13.84,8.94h0c7.1,0,13.58-4.88,17.36-13.06C69.86,48,72,42.8,74.49,36.77h18.1l7.92,20.07h7.85ZM28.07,48.84a20.69,20.69,0,0,1-7.23-1.3,8.69,8.69,0,0,1,2-4.52,6.11,6.11,0,0,1,4.65-1.66c3.43,0,5.76,3.47,7.11,6.42A20.86,20.86,0,0,1,28.07,48.84Zm13-4.56c-3.16-6.54-7.94-10.22-13.53-10.22A13.36,13.36,0,0,0,17.57,38a14.6,14.6,0,0,0-3.27,5.62A20.77,20.77,0,1,1,41,44.28ZM77.23,30c2.29-5.65,4.6-11.41,6.4-15.92L89.93,30Z"/></g></g></svg>